<svg xmlns="http://www.w3.org/2000/svg" width="500" height="500" viewBox="0 0 500 500">
  <g fill="none">
    <rect width="500" height="500" fill="#00A4DE" rx="250"/>
    <path fill="#FFF" d="M278.2,258.1 C287.3,268.2 291.8,281.7 291.8,298.6 C291.8,310.8 289.2,321.5 284.1,330.7 C279.088583,339.85096 271.464241,347.301229 262.2,352.1 C254.5,356.2 245,359.2 233.6,361 C222.2,362.733333 203.6,363.6 177.8,363.6 L113.6,363.6 L113.6,136.4 L175.9,136.4 C201.5,136.4 219.4,137.1 229.6,138.8 C239.8,140.5 248.5,143.4 255.8,147.4 C263.806488,151.692058 270.455994,158.133767 275,166 C279.492038,174.31616 281.765132,183.649621 281.6,193.1 C281.6,206 278.4,216.1 271.8,223.8 C265.2,231.5 254.8,237.2 240.4,241.1 C256.533333,242.3 269.133333,247.966667 278.2,258.1 Z M171.2,186.7 L171.2,232.3 L183.5,232.3 C198.8,232.3 209.3,230.7 214.9,227.3 C220.5,223.9 223.4,218.4 223.4,209.9 C223.4,201.4 220.8,195.4 215.5,191.9 C210.233333,188.433333 199.9,186.7 184.5,186.7 L171.2,186.7 Z M224,317 L223.9,317.1 C230.1,313.4 233.1,308.3 233.1,298.7 C233.1,289.1 230.2,282.5 224.7,278.7 C219.2,274.9 208.8,273 193.8,273 L171.2,273 L171.2,322.5 L192.9,322.5 C207.5,322.5 217.9,320.7 224,317 Z M357.6,306.1 C373.505801,306.1 386.4,318.994199 386.4,334.9 C386.4,350.805801 373.505801,363.7 357.6,363.7 C341.694199,363.7 328.8,350.805801 328.8,334.9 C328.8,318.994199 341.694199,306.1 357.6,306.1 Z M332.6,136.4 L382.6,136.4 L382.6,287.92 L332.6,287.92 L332.6,136.4 Z"/>
  </g>
</svg>
